<svg xmlns="http://www.w3.org/2000/svg" viewBox="0 7 102 20.9" overflow="visible" pointer-events="none" class="REKGeC _1Le30C pQxkdC" style="height:22px"><title>Fresha</title><path fill="#060911" d="M75.8 8.9h3.4v7c1.1-1.6 3.5-2.1 5.4-1.3 1.9.8 2.5 2.1 2.6 2.3.2.4.3.9.4 1.3.5 3.1-.5 6.2.4 9.2h-3.3c-.9-2.1-.4-4.5-.4-6.8 0-.6 0-1.3-.3-1.9-.4-.8-1.3-1.4-2.2-1.4-.9 0-1.8.5-2.2 1.3-.4.7-.4 1.5-.4 2.3v6.5h-3.4V8.9zM62.5 20.6c.1-3.7-2.3-6.5-5.8-6.4-2.4 0-4.5 1.2-5.6 3.3-1.2 2.3-1.1 5.4.4 7.5 2.2 3 6.6 3.6 10.8 1.6l-1.1-2.7c-3.5 1.5-7.3 1.1-7.6-2h8.9v-1.3zm-8.8-1.3c.2-.7.6-1.2 1.1-1.6 1-.8 2.8-.9 3.8-.1.5.4.8.9 1 1.7h-5.9zM42.8 19s0-2-1.6-2h-3.7v10.4h-3.4V17h-2.6v-2.8h2.6v-2.3c0-1.9 1.8-4.9 5.8-4.9s5.5 3.4 5.5 3.4l-2.6 1.8s-.7-2.1-2.9-2.1c-1 0-2.4.7-2.4 2.3v1.7h5.2c2.3 0 2.9 1.8 2.9 1.8.9-2 3.9-1.8 4.6-1.7v2.7c-2.1-.1-4.1 1.1-4.1 3.5v6.9h-3.4l.1-8.3zM73.6 21c-1.1-1.1-3.7-1.4-5.4-1.7-.8-.2-1.5-.4-1.5-1.2 0-1 1-1.3 2-1.3s2.1.4 2.6 1.3l2.6-1.4c-1.4-2.5-5.4-3.1-7.9-2-.8.3-1.4.8-1.8 1.4-1 1.3-.9 3.5.3 4.6.6.6 1.6 1 2.9 1.3l2.4.5c.9.2 1.6.4 1.6 1.3 0 1.1-1.2 1.4-2.3 1.4-2.7 0-3.3-2.6-3.3-2.6l-3.1 1c.2.8 1.3 4.3 6.3 4.3 2.9 0 5.4-1.1 5.4-4.1.1-1.4-.2-2.2-.8-2.8zM101.3 25c-.6 0-1.1-.4-1.1-1.2 0-.4-.1-1.9-.1-2.3 0-2.2.1-4.4-1.5-5.9-1.7-1.7-5.6-1.9-7.8-.5-.8.5-1.5 1.1-2 1.8l2 2c.8-1.3 1.9-1.9 3.2-1.9 1.2-.1 2.3.5 2.6 1.7-2.7.7-6.1 1-7.6 3.7-.7 1.3-.5 3 .5 4.1.8.9 2.1 1.2 3.3 1.2 1.9 0 3.7-.4 4.9-2.1.6 1.4 1.9 2.1 3.5 2.1.2 0 .5-.1.7-.1V25h-.6zm-4.6-2.7c.1 1.9-1.5 3-3.2 3-.9 0-1.6-.4-1.6-1.4 0-1 .8-1.4 1.8-1.6l2.9-.8.1.8z"></path><circle cx="15" cy="15" r="15" fill="url(#freshaLogoExtGradient)"></circle></svg>