<svg viewBox="0 0 595.28 841.89" version="1.1" xmlns="http://www.w3.org/2000/svg" data-sanitized-data-name="Lager 1" data-name="Lager 1" id="Lager_1">
  <polygon points="184.01 609.63 184.01 598.48 186.35 598.48 186.35 603.27 190.81 598.48 193.87 598.48 189.58 602.85 194.18 609.63 191.19 609.63 187.97 604.5 186.35 606.15 186.35 609.63 184.01 609.63" class="cls-2"></polygon>
  <path d="M501.31,113.89H99.89c-10.82,0-14.72,3.48-14.71,14.95,0,0,6.19,157.01,6.19,184.49,0,10.03,2.67,27.02,28.04,34.29,19.75,5.66,36.62-8.29,58.41-32.13,15.78-17.27,50.22-64.03,60.97-78.75,1.74-2.38,5.14-2.7,7.3-.7,11.78,10.92,55.93,47.92,101.68,76.72,52.5,33.05,61.88,13.4,66.71,23.93,3.01,6.57-17.33,38.07-27.85,64.94-10.51,26.87.28,110.69.87,128.21.58,17.52-3.5,25.12-21.03,39.14-17.52,14.02-67.91.58-84.27.58s-52.76,33.07-68.36,38.81c-13.06,4.81-16.47,2.97-21.01.33-10.74-6.25-24.19-83.41-42.79-116.41-8.34-14.81-20.24-12.44-33.09-9.52-12.85,2.92-31.79,6.82-31.79,36.24v171.15c0,16.29,5.91,20.18,20.18,20.18h399.84c20.76,0,22.48-4.69,22.48-22.48V140.26c0-20.07-7.91-26.37-26.37-26.37M451.42,625.77c-4.41,14.83,14.21,25.47,25.15,36.41,17.39,17.39,4.67,29.97-5.06,28.05l-122.79-24.22c-11.82-2.33-23.97-2.48-35.85-.45l-191.75,35.27c-13.74,2.36-24.54-9.45-23.29-23.33,3.97-44.1,10.77-73.84,16.78-97.03.82-3.17,4.53-4.49,6.85-2.18,20.26,20.06,38.48,35.07,62.2,45.75,20.07,9.04,147.04-3.85,192.59-10.27,45.56-6.42,46.35-34.78,49.33-46.55,3.44-13.6,34.95-139.29,36.67-163.59,4.98-70.16-34.16-95.75-55.1-108.01-10.51-6.15-113.71-81.47-129.48-93.73-15.77-12.27-34.63-6.55-43.22,0-24.19,18.42-72.22,55.05-85.73,65.36-1.78,1.36-4.36.57-5.09-1.54l-37.03-107.57c-6.62-21.42,3.84-25.74,12.6-24.15l245.29,44.5c13.94,2.46,28.67,2.43,41.69-3.1,17.64-7.5,56.13-22.54,81.47-37.74,3.75-2.25,7.07-3.42,9.65-.83,2.48,2.48,1.02,5.91-.84,7.77-3.53,3.53-23.57,22.25-21.3,41.04,5.42,44.84,44.6,218.67,44.6,260.09,0,49.75-59.76,151.16-68.35,180.06"></path>
</svg>